<svg xmlns="http://www.w3.org/2000/svg" xmlns:xlink="http://www.w3.org/1999/xlink" width="500" zoomAndPan="magnify" viewBox="0 0 375 374.999991" height="500" preserveAspectRatio="xMidYMid meet" version="1.0"><defs><clipPath id="0816b00305"><path d="M 12.757812 16.324219 L 361 16.324219 L 361 358.324219 L 12.757812 358.324219 Z M 12.757812 16.324219 " clip-rule="nonzero"/></clipPath></defs><g clip-path="url(#0816b00305)"><path fill="#ffffff" d="M 186.988281 16.324219 C 90.644531 16.324219 12.761719 94.699219 12.761719 191.660156 C 12.761719 269.164062 62.664062 334.773438 131.890625 357.992188 C 140.546875 359.738281 143.71875 354.21875 143.71875 349.578125 C 143.71875 345.511719 143.433594 331.582031 143.433594 317.0625 C 94.96875 327.515625 84.875 296.164062 84.875 296.164062 C 77.085938 275.84375 65.546875 270.621094 65.546875 270.621094 C 49.683594 259.878906 66.699219 259.878906 66.699219 259.878906 C 84.296875 261.039062 93.53125 277.875 93.53125 277.875 C 109.105469 304.582031 134.199219 297.035156 144.296875 292.390625 C 145.738281 281.066406 150.355469 273.230469 155.257812 268.878906 C 116.601562 264.8125 75.933594 249.71875 75.933594 182.367188 C 75.933594 163.210938 82.851562 147.535156 93.816406 135.34375 C 92.085938 130.992188 86.027344 112.988281 95.546875 88.894531 C 95.546875 88.894531 110.257812 84.25 143.429688 106.894531 C 157.691406 103.039062 172.210938 101.101562 186.988281 101.085938 C 201.699219 101.085938 216.695312 103.121094 230.542969 106.894531 C 263.714844 84.25 278.425781 88.894531 278.425781 88.894531 C 287.949219 112.988281 281.886719 130.992188 280.15625 135.34375 C 291.410156 147.535156 298.042969 163.210938 298.042969 182.367188 C 298.042969 249.71875 257.371094 264.519531 218.429688 268.878906 C 224.777344 274.390625 230.253906 284.839844 230.253906 301.386719 C 230.253906 324.902344 229.96875 343.773438 229.96875 349.574219 C 229.96875 354.21875 233.140625 359.738281 241.792969 357.996094 C 311.023438 334.769531 360.925781 269.164062 360.925781 191.660156 C 361.210938 94.699219 283.042969 16.324219 186.988281 16.324219 Z M 186.988281 16.324219 " fill-opacity="1" fill-rule="evenodd"/></g></svg>