<svg xmlns="http://www.w3.org/2000/svg" xmlns:xlink="http://www.w3.org/1999/xlink" width="500" zoomAndPan="magnify" viewBox="0 0 375 374.999991" height="500" preserveAspectRatio="xMidYMid meet" version="1.0"><defs><clipPath id="f99db8ce29"><path d="M 9 35.472656 L 311 35.472656 L 311 337 L 9 337 Z M 9 35.472656 " clip-rule="nonzero"/></clipPath></defs><path fill="#ffffff" d="M 348.140625 319.613281 C 348.523438 319.617188 348.902344 319.582031 349.277344 319.507812 C 349.652344 319.433594 350.015625 319.324219 350.367188 319.175781 C 350.722656 319.027344 351.054688 318.84375 351.367188 318.625 C 351.683594 318.410156 351.972656 318.164062 352.238281 317.886719 C 352.5 317.609375 352.734375 317.308594 352.933594 316.984375 C 353.136719 316.660156 353.304688 316.316406 353.4375 315.960938 C 353.566406 315.601562 353.660156 315.230469 353.71875 314.855469 C 353.773438 314.476562 353.789062 314.097656 353.769531 313.714844 C 353.769531 309.53125 351.242188 307.53125 346.0625 307.53125 L 337.6875 307.53125 L 337.6875 329.441406 L 340.835938 329.441406 L 340.835938 319.890625 L 344.707031 319.890625 L 344.796875 320.003906 L 350.800781 329.441406 L 354.171875 329.441406 L 347.707031 319.675781 Z M 344.5 317.421875 L 340.847656 317.421875 L 340.847656 310.011719 L 345.476562 310.011719 C 347.867188 310.011719 350.59375 310.402344 350.59375 313.53125 C 350.59375 317.132812 347.835938 317.421875 344.480469 317.421875 " fill-opacity="1" fill-rule="nonzero"/><g clip-path="url(#f99db8ce29)"><path fill="#ffffff" d="M 265.988281 292.15625 L 221.328125 292.15625 L 221.328125 222.253906 C 221.328125 205.585938 221.03125 184.125 198.101562 184.125 C 174.839844 184.125 171.28125 202.289062 171.28125 221.039062 L 171.28125 292.152344 L 126.625 292.152344 L 126.625 148.402344 L 169.496094 148.402344 L 169.496094 168.046875 L 170.097656 168.046875 C 171.164062 166.222656 172.351562 164.476562 173.652344 162.8125 C 174.957031 161.148438 176.367188 159.578125 177.882812 158.105469 C 179.398438 156.628906 181.003906 155.261719 182.707031 154.003906 C 184.40625 152.75 186.183594 151.609375 188.035156 150.59375 C 189.890625 149.574219 191.804688 148.6875 193.777344 147.925781 C 195.75 147.167969 197.765625 146.546875 199.824219 146.058594 C 201.882812 145.570312 203.964844 145.222656 206.070312 145.019531 C 208.175781 144.8125 210.285156 144.746094 212.398438 144.824219 C 257.660156 144.824219 266.007812 174.585938 266.007812 213.296875 Z M 76.234375 128.75 C 75.382812 128.75 74.539062 128.710938 73.691406 128.628906 C 72.847656 128.542969 72.007812 128.421875 71.175781 128.253906 C 70.34375 128.089844 69.523438 127.882812 68.710938 127.636719 C 67.898438 127.390625 67.101562 127.105469 66.316406 126.78125 C 65.53125 126.457031 64.765625 126.09375 64.015625 125.695312 C 63.265625 125.296875 62.539062 124.859375 61.835938 124.386719 C 61.128906 123.917969 60.449219 123.414062 59.792969 122.875 C 59.136719 122.335938 58.507812 121.769531 57.90625 121.167969 C 57.304688 120.566406 56.738281 119.941406 56.199219 119.285156 C 55.660156 118.628906 55.15625 117.949219 54.683594 117.242188 C 54.210938 116.539062 53.773438 115.8125 53.375 115.0625 C 52.972656 114.316406 52.613281 113.550781 52.285156 112.765625 C 51.960938 111.980469 51.675781 111.183594 51.429688 110.371094 C 51.183594 109.558594 50.976562 108.738281 50.8125 107.90625 C 50.644531 107.074219 50.519531 106.234375 50.4375 105.390625 C 50.355469 104.546875 50.3125 103.699219 50.3125 102.851562 C 50.3125 102.003906 50.355469 101.15625 50.4375 100.3125 C 50.519531 99.46875 50.644531 98.632812 50.808594 97.800781 C 50.976562 96.964844 51.179688 96.144531 51.425781 95.332031 C 51.671875 94.519531 51.957031 93.722656 52.285156 92.9375 C 52.609375 92.15625 52.972656 91.390625 53.371094 90.640625 C 53.769531 89.894531 54.207031 89.164062 54.675781 88.460938 C 55.148438 87.753906 55.652344 87.074219 56.191406 86.417969 C 56.730469 85.761719 57.300781 85.132812 57.898438 84.535156 C 58.5 83.933594 59.128906 83.367188 59.785156 82.828125 C 60.441406 82.289062 61.121094 81.785156 61.828125 81.3125 C 62.53125 80.839844 63.257812 80.40625 64.007812 80.003906 C 64.757812 79.605469 65.523438 79.242188 66.304688 78.917969 C 67.089844 78.59375 67.890625 78.308594 68.699219 78.0625 C 69.511719 77.8125 70.335938 77.609375 71.167969 77.441406 C 72 77.277344 72.839844 77.152344 73.683594 77.070312 C 74.527344 76.984375 75.375 76.945312 76.222656 76.945312 C 77.074219 76.945312 77.917969 76.984375 78.765625 77.066406 C 79.609375 77.152344 80.449219 77.277344 81.28125 77.441406 C 82.113281 77.605469 82.933594 77.8125 83.746094 78.058594 C 84.558594 78.304688 85.359375 78.589844 86.140625 78.914062 C 86.925781 79.238281 87.691406 79.601562 88.441406 80 C 89.191406 80.398438 89.917969 80.835938 90.621094 81.308594 C 91.328125 81.777344 92.011719 82.28125 92.664062 82.820312 C 93.324219 83.359375 93.949219 83.929688 94.550781 84.527344 C 95.152344 85.128906 95.71875 85.753906 96.257812 86.410156 C 96.796875 87.066406 97.300781 87.746094 97.773438 88.453125 C 98.246094 89.15625 98.683594 89.882812 99.082031 90.632812 C 99.484375 91.378906 99.84375 92.148438 100.171875 92.929688 C 100.496094 93.714844 100.78125 94.511719 101.027344 95.324219 C 101.273438 96.136719 101.480469 96.957031 101.644531 97.789062 C 101.8125 98.621094 101.9375 99.460938 102.019531 100.304688 C 102.101562 101.148438 102.144531 101.996094 102.144531 102.84375 C 102.144531 103.691406 102.105469 104.539062 102.019531 105.382812 C 101.9375 106.226562 101.8125 107.066406 101.648438 107.898438 C 101.484375 108.730469 101.277344 109.550781 101.03125 110.363281 C 100.785156 111.175781 100.5 111.972656 100.171875 112.757812 C 99.847656 113.539062 99.488281 114.304688 99.085938 115.054688 C 98.6875 115.804688 98.25 116.53125 97.78125 117.234375 C 97.308594 117.941406 96.804688 118.621094 96.265625 119.277344 C 95.726562 119.933594 95.15625 120.5625 94.558594 121.160156 C 93.957031 121.761719 93.328125 122.332031 92.671875 122.867188 C 92.019531 123.40625 91.335938 123.910156 90.628906 124.382812 C 89.925781 124.855469 89.199219 125.289062 88.449219 125.691406 C 87.703125 126.089844 86.933594 126.453125 86.152344 126.777344 C 85.367188 127.101562 84.570312 127.386719 83.757812 127.636719 C 82.945312 127.882812 82.121094 128.085938 81.289062 128.253906 C 80.457031 128.417969 79.617188 128.542969 78.773438 128.625 C 77.929688 128.710938 77.082031 128.75 76.234375 128.75 M 98.5625 292.15625 L 53.855469 292.15625 L 53.855469 148.402344 L 98.5625 148.402344 Z M 288.25 35.492188 L 31.417969 35.492188 C 30.695312 35.484375 29.976562 35.511719 29.261719 35.574219 C 28.542969 35.636719 27.832031 35.734375 27.121094 35.863281 C 26.414062 35.996094 25.714844 36.164062 25.023438 36.363281 C 24.332031 36.566406 23.652344 36.800781 22.984375 37.066406 C 22.316406 37.335938 21.664062 37.636719 21.023438 37.96875 C 20.386719 38.300781 19.765625 38.660156 19.160156 39.054688 C 18.558594 39.445312 17.976562 39.867188 17.414062 40.320312 C 16.851562 40.769531 16.3125 41.246094 15.800781 41.746094 C 15.285156 42.25 14.796875 42.777344 14.332031 43.328125 C 13.867188 43.878906 13.433594 44.449219 13.027344 45.042969 C 12.617188 45.636719 12.242188 46.25 11.894531 46.878906 C 11.546875 47.511719 11.234375 48.15625 10.949219 48.820312 C 10.667969 49.480469 10.417969 50.152344 10.199219 50.839844 C 9.980469 51.527344 9.796875 52.222656 9.648438 52.925781 C 9.5 53.628906 9.386719 54.339844 9.308594 55.054688 C 9.226562 55.769531 9.183594 56.488281 9.175781 57.207031 L 9.175781 314.984375 C 9.183594 315.703125 9.226562 316.421875 9.304688 317.136719 C 9.386719 317.851562 9.5 318.5625 9.648438 319.265625 C 9.796875 319.972656 9.980469 320.667969 10.195312 321.351562 C 10.414062 322.039062 10.664062 322.714844 10.945312 323.375 C 11.230469 324.039062 11.546875 324.683594 11.890625 325.316406 C 12.238281 325.945312 12.617188 326.558594 13.023438 327.152344 C 13.429688 327.746094 13.867188 328.320312 14.328125 328.871094 C 14.792969 329.421875 15.28125 329.949219 15.796875 330.453125 C 16.308594 330.957031 16.847656 331.433594 17.410156 331.882812 C 17.972656 332.335938 18.554688 332.757812 19.15625 333.148438 C 19.761719 333.542969 20.382812 333.90625 21.023438 334.238281 C 21.660156 334.570312 22.3125 334.871094 22.980469 335.140625 C 23.652344 335.40625 24.332031 335.640625 25.023438 335.84375 C 25.714844 336.042969 26.414062 336.210938 27.121094 336.34375 C 27.828125 336.476562 28.542969 336.574219 29.257812 336.636719 C 29.976562 336.703125 30.695312 336.730469 31.417969 336.722656 L 288.25 336.722656 C 288.972656 336.730469 289.691406 336.703125 290.414062 336.640625 C 291.132812 336.582031 291.84375 336.484375 292.554688 336.351562 C 293.265625 336.21875 293.964844 336.054688 294.660156 335.855469 C 295.351562 335.652344 296.035156 335.417969 296.703125 335.152344 C 297.375 334.882812 298.03125 334.585938 298.671875 334.253906 C 299.3125 333.921875 299.933594 333.558594 300.539062 333.164062 C 301.144531 332.773438 301.730469 332.351562 302.292969 331.902344 C 302.859375 331.449219 303.398438 330.972656 303.914062 330.46875 C 304.433594 329.96875 304.921875 329.441406 305.390625 328.886719 C 305.855469 328.335938 306.292969 327.765625 306.699219 327.167969 C 307.109375 326.574219 307.488281 325.960938 307.835938 325.332031 C 308.1875 324.699219 308.503906 324.050781 308.789062 323.390625 C 309.074219 322.726562 309.324219 322.050781 309.542969 321.363281 C 309.761719 320.675781 309.949219 319.980469 310.097656 319.273438 C 310.25 318.570312 310.363281 317.859375 310.445312 317.140625 C 310.527344 316.425781 310.570312 315.703125 310.582031 314.984375 L 310.582031 57.1875 C 310.570312 56.464844 310.523438 55.746094 310.445312 55.03125 C 310.363281 54.316406 310.246094 53.605469 310.097656 52.898438 C 309.945312 52.195312 309.761719 51.496094 309.542969 50.808594 C 309.324219 50.125 309.070312 49.449219 308.785156 48.785156 C 308.5 48.125 308.183594 47.476562 307.832031 46.847656 C 307.484375 46.214844 307.105469 45.601562 306.695312 45.007812 C 306.289062 44.414062 305.851562 43.84375 305.386719 43.292969 C 304.921875 42.742188 304.429688 42.214844 303.910156 41.710938 C 303.394531 41.207031 302.855469 40.730469 302.289062 40.28125 C 301.726562 39.832031 301.144531 39.410156 300.535156 39.019531 C 299.933594 38.625 299.308594 38.265625 298.667969 37.933594 C 298.027344 37.601562 297.371094 37.304688 296.703125 37.035156 C 296.03125 36.769531 295.351562 36.535156 294.65625 36.335938 C 293.964844 36.136719 293.261719 35.96875 292.554688 35.839844 C 291.84375 35.707031 291.128906 35.613281 290.410156 35.550781 C 289.691406 35.488281 288.972656 35.464844 288.25 35.472656 " fill-opacity="1" fill-rule="nonzero"/></g><path fill="#ffffff" d="M 344.878906 297.769531 C 344.433594 297.773438 343.988281 297.792969 343.539062 297.828125 C 343.09375 297.859375 342.652344 297.910156 342.207031 297.96875 C 341.765625 298.03125 341.324219 298.109375 340.886719 298.199219 C 340.449219 298.292969 340.015625 298.398438 339.582031 298.515625 C 339.152344 298.636719 338.726562 298.769531 338.304688 298.917969 C 337.882812 299.066406 337.464844 299.226562 337.054688 299.398438 C 336.640625 299.574219 336.234375 299.761719 335.835938 299.964844 C 335.4375 300.164062 335.042969 300.378906 334.660156 300.605469 C 334.273438 300.832031 333.894531 301.070312 333.527344 301.320312 C 333.15625 301.574219 332.796875 301.835938 332.441406 302.109375 C 332.089844 302.386719 331.746094 302.671875 331.414062 302.96875 C 331.078125 303.265625 330.753906 303.574219 330.441406 303.890625 C 330.125 304.210938 329.824219 304.539062 329.53125 304.875 C 329.238281 305.214844 328.957031 305.5625 328.6875 305.917969 C 328.417969 306.273438 328.160156 306.640625 327.914062 307.011719 C 327.667969 307.386719 327.433594 307.765625 327.214844 308.15625 C 326.992188 308.542969 326.785156 308.9375 326.589844 309.339844 C 326.394531 309.742188 326.210938 310.152344 326.042969 310.566406 C 325.875 310.980469 325.71875 311.398438 325.578125 311.820312 C 325.4375 312.246094 325.308594 312.675781 325.195312 313.105469 C 325.082031 313.539062 324.984375 313.972656 324.898438 314.414062 C 324.8125 314.851562 324.742188 315.292969 324.6875 315.738281 C 324.632812 316.179688 324.589844 316.625 324.5625 317.070312 C 324.535156 317.515625 324.523438 317.964844 324.527344 318.410156 C 324.527344 318.859375 324.542969 319.304688 324.578125 319.75 C 324.609375 320.195312 324.652344 320.640625 324.714844 321.082031 C 324.773438 321.527344 324.847656 321.964844 324.9375 322.402344 C 325.027344 322.84375 325.128906 323.277344 325.246094 323.707031 C 325.363281 324.140625 325.496094 324.566406 325.640625 324.988281 C 325.789062 325.410156 325.945312 325.828125 326.117188 326.242188 C 326.289062 326.652344 326.476562 327.058594 326.675781 327.460938 C 326.875 327.859375 327.085938 328.253906 327.3125 328.640625 C 327.535156 329.027344 327.773438 329.40625 328.023438 329.777344 C 328.273438 330.148438 328.535156 330.507812 328.804688 330.863281 C 329.078125 331.214844 329.363281 331.5625 329.660156 331.898438 C 329.957031 332.230469 330.261719 332.558594 330.578125 332.871094 C 330.894531 333.1875 331.222656 333.492188 331.558594 333.785156 C 331.898438 334.082031 332.242188 334.363281 332.597656 334.632812 C 332.953125 334.90625 333.316406 335.164062 333.691406 335.414062 C 334.0625 335.660156 334.441406 335.894531 334.828125 336.117188 C 335.21875 336.339844 335.613281 336.550781 336.011719 336.75 C 336.414062 336.945312 336.820312 337.128906 337.234375 337.300781 C 337.648438 337.472656 338.066406 337.628906 338.492188 337.769531 C 338.914062 337.914062 339.34375 338.042969 339.773438 338.160156 C 340.207031 338.273438 340.640625 338.375 341.082031 338.460938 C 341.519531 338.550781 341.960938 338.621094 342.402344 338.679688 C 342.847656 338.738281 343.292969 338.78125 343.738281 338.8125 C 344.183594 338.839844 344.628906 338.855469 345.078125 338.855469 C 345.523438 338.855469 345.972656 338.839844 346.417969 338.8125 C 346.863281 338.78125 347.308594 338.738281 347.753906 338.679688 C 348.195312 338.621094 348.636719 338.550781 349.074219 338.460938 C 349.515625 338.375 349.949219 338.273438 350.382812 338.160156 C 350.8125 338.042969 351.242188 337.914062 351.664062 337.769531 C 352.089844 337.628906 352.507812 337.472656 352.921875 337.300781 C 353.332031 337.128906 353.742188 336.945312 354.140625 336.75 C 354.542969 336.550781 354.9375 336.34375 355.324219 336.117188 C 355.710938 335.894531 356.09375 335.660156 356.464844 335.414062 C 356.835938 335.164062 357.199219 334.90625 357.554688 334.632812 C 357.910156 334.363281 358.257812 334.082031 358.59375 333.785156 C 358.929688 333.492188 359.257812 333.1875 359.574219 332.871094 C 359.890625 332.558594 360.199219 332.230469 360.492188 331.898438 C 360.789062 331.5625 361.074219 331.21875 361.347656 330.863281 C 361.621094 330.507812 361.882812 330.148438 362.132812 329.777344 C 362.382812 329.40625 362.617188 329.027344 362.84375 328.640625 C 363.066406 328.253906 363.28125 327.859375 363.480469 327.460938 C 363.679688 327.0625 363.863281 326.65625 364.035156 326.242188 C 364.210938 325.828125 364.371094 325.414062 364.515625 324.988281 C 364.660156 324.566406 364.789062 324.140625 364.90625 323.707031 C 365.023438 323.277344 365.128906 322.84375 365.21875 322.40625 C 365.308594 321.964844 365.382812 321.527344 365.441406 321.082031 C 365.503906 320.640625 365.546875 320.195312 365.578125 319.75 C 365.609375 319.304688 365.628906 318.859375 365.628906 318.410156 C 365.632812 317.964844 365.621094 317.519531 365.59375 317.070312 C 365.566406 316.625 365.523438 316.179688 365.46875 315.738281 C 365.410156 315.292969 365.339844 314.851562 365.257812 314.414062 C 365.171875 313.976562 365.074219 313.539062 364.960938 313.105469 C 364.847656 312.675781 364.71875 312.246094 364.578125 311.820312 C 364.4375 311.398438 364.28125 310.980469 364.113281 310.566406 C 363.945312 310.152344 363.761719 309.742188 363.566406 309.339844 C 363.371094 308.9375 363.164062 308.542969 362.941406 308.15625 C 362.722656 307.765625 362.488281 307.386719 362.242188 307.011719 C 361.996094 306.640625 361.738281 306.273438 361.46875 305.917969 C 361.199219 305.5625 360.917969 305.214844 360.625 304.875 C 360.332031 304.539062 360.027344 304.210938 359.714844 303.890625 C 359.402344 303.574219 359.078125 303.265625 358.742188 302.96875 C 358.410156 302.671875 358.066406 302.386719 357.710938 302.109375 C 357.359375 301.835938 357 301.574219 356.628906 301.320312 C 356.257812 301.070312 355.882812 300.832031 355.496094 300.605469 C 355.109375 300.378906 354.71875 300.164062 354.320312 299.964844 C 353.917969 299.761719 353.515625 299.574219 353.101562 299.398438 C 352.691406 299.226562 352.273438 299.066406 351.851562 298.917969 C 351.429688 298.769531 351.003906 298.636719 350.570312 298.515625 C 350.140625 298.398438 349.707031 298.292969 349.269531 298.199219 C 348.832031 298.109375 348.390625 298.03125 347.949219 297.96875 C 347.507812 297.910156 347.0625 297.859375 346.617188 297.828125 C 346.167969 297.792969 345.722656 297.773438 345.273438 297.769531 L 344.878906 297.769531 M 344.878906 336.503906 C 344.289062 336.511719 343.699219 336.492188 343.113281 336.445312 C 342.523438 336.398438 341.9375 336.320312 341.359375 336.214844 C 340.777344 336.109375 340.203125 335.976562 339.636719 335.8125 C 339.070312 335.652344 338.511719 335.464844 337.960938 335.246094 C 337.414062 335.03125 336.875 334.785156 336.351562 334.515625 C 335.824219 334.246094 335.3125 333.953125 334.820312 333.632812 C 334.320312 333.3125 333.84375 332.972656 333.378906 332.605469 C 332.917969 332.238281 332.476562 331.847656 332.050781 331.4375 C 331.625 331.027344 331.222656 330.597656 330.839844 330.148438 C 330.460938 329.699219 330.101562 329.230469 329.765625 328.746094 C 329.429688 328.261719 329.117188 327.761719 328.828125 327.246094 C 328.542969 326.730469 328.28125 326.203125 328.046875 325.660156 C 327.8125 325.121094 327.605469 324.570312 327.421875 324.007812 C 327.242188 323.445312 327.089844 322.875 326.964844 322.300781 C 326.839844 321.722656 326.746094 321.140625 326.675781 320.554688 C 326.609375 319.96875 326.570312 319.382812 326.5625 318.792969 C 326.550781 318.203125 326.570312 317.613281 326.617188 317.023438 C 326.667969 316.4375 326.742188 315.851562 326.847656 315.273438 C 326.953125 314.691406 327.089844 314.117188 327.25 313.550781 C 327.410156 312.984375 327.601562 312.425781 327.816406 311.875 C 328.035156 311.328125 328.277344 310.789062 328.546875 310.265625 C 328.816406 309.742188 329.113281 309.230469 329.429688 308.734375 C 329.75 308.238281 330.09375 307.761719 330.460938 307.296875 C 330.828125 306.835938 331.214844 306.390625 331.628906 305.96875 C 332.039062 305.542969 332.46875 305.140625 332.917969 304.757812 C 333.367188 304.378906 333.835938 304.019531 334.320312 303.683594 C 334.804688 303.347656 335.304688 303.035156 335.820312 302.75 C 336.335938 302.460938 336.867188 302.203125 337.40625 301.96875 C 337.949219 301.730469 338.5 301.523438 339.0625 301.34375 C 339.625 301.164062 340.191406 301.011719 340.769531 300.886719 C 341.347656 300.761719 341.929688 300.664062 342.515625 300.597656 C 343.101562 300.53125 343.691406 300.492188 344.28125 300.480469 C 344.871094 300.472656 345.460938 300.492188 346.046875 300.539062 C 346.636719 300.585938 347.21875 300.664062 347.800781 300.769531 C 348.382812 300.875 348.957031 301.007812 349.523438 301.167969 C 350.089844 301.332031 350.648438 301.519531 351.199219 301.738281 C 351.746094 301.953125 352.285156 302.195312 352.808594 302.464844 C 353.335938 302.734375 353.84375 303.03125 354.339844 303.351562 C 354.835938 303.667969 355.316406 304.011719 355.777344 304.378906 C 356.242188 304.746094 356.683594 305.132812 357.109375 305.542969 C 357.535156 305.953125 357.9375 306.382812 358.316406 306.835938 C 358.699219 307.285156 359.058594 307.75 359.394531 308.234375 C 359.730469 308.722656 360.042969 309.222656 360.328125 309.738281 C 360.617188 310.253906 360.878906 310.78125 361.113281 311.320312 C 361.347656 311.863281 361.554688 312.414062 361.734375 312.976562 C 361.917969 313.539062 362.070312 314.105469 362.195312 314.683594 C 362.316406 315.261719 362.414062 315.839844 362.484375 316.425781 C 362.550781 317.015625 362.589844 317.601562 362.597656 318.191406 C 362.597656 318.292969 362.597656 318.390625 362.597656 318.496094 C 362.609375 319.070312 362.59375 319.648438 362.550781 320.222656 C 362.507812 320.796875 362.433594 321.371094 362.335938 321.9375 C 362.234375 322.507812 362.105469 323.070312 361.949219 323.625 C 361.792969 324.179688 361.609375 324.726562 361.402344 325.265625 C 361.191406 325.804688 360.957031 326.328125 360.695312 326.84375 C 360.433594 327.359375 360.148438 327.859375 359.839844 328.347656 C 359.527344 328.832031 359.195312 329.304688 358.835938 329.757812 C 358.480469 330.210938 358.101562 330.648438 357.703125 331.0625 C 357.304688 331.480469 356.886719 331.875 356.445312 332.253906 C 356.007812 332.628906 355.550781 332.980469 355.078125 333.3125 C 354.605469 333.644531 354.117188 333.949219 353.613281 334.234375 C 353.109375 334.515625 352.59375 334.773438 352.066406 335.007812 C 351.539062 335.238281 351 335.445312 350.449219 335.625 C 349.902344 335.804688 349.34375 335.957031 348.78125 336.082031 C 348.21875 336.203125 347.648438 336.300781 347.074219 336.371094 C 346.503906 336.441406 345.925781 336.480469 345.351562 336.492188 L 344.882812 336.492188 " fill-opacity="1" fill-rule="nonzero"/></svg>